<?xml version="1.0" standalone="no"?>
<!DOCTYPE svg PUBLIC "-//W3C//DTD SVG 20010904//EN"
 "http://www.w3.org/TR/2001/REC-SVG-20010904/DTD/svg10.dtd">
<svg version="1.0" xmlns="http://www.w3.org/2000/svg"
 width="310.000000pt" height="310.000000pt" viewBox="0 0 310.000000 310.000000"
 preserveAspectRatio="xMidYMid meet">
<metadata>
Created by potrace 1.14, written by Peter Selinger 2001-2017
</metadata>
<g transform="translate(0.000000,310.000000) scale(0.100000,-0.100000)"
fill="#000000" stroke="none">
<path d="M0 1550 l0 -1550 260 0 260 0 0 130 0 130 255 0 255 0 0 -130 0 -130
260 0 260 0 0 130 0 130 68 0 c38 0 151 -3 250 -7 l182 -6 0 -124 0 -123 525
0 525 0 0 1425 0 1425 -125 0 -125 0 0 125 0 125 -1425 0 -1425 0 0 -1550z
m2322 643 l3 -128 253 -3 252 -2 0 -119 0 -118 -182 -6 c-99 -4 -329 -7 -510
-7 -254 0 -330 -3 -333 -12 -3 -7 -1 -182 3 -388 l7 -375 122 -3 122 -3 3
-127 3 -127 263 -3 263 -2 -3 -128 -3 -127 -730 -5 c-401 -3 -867 -3 -1035 0
l-305 5 -9 257 -9 258 -118 0 -119 0 0 130 0 130 125 0 125 0 0 -109 c0 -60 3
-116 6 -125 5 -13 26 -16 130 -16 l123 0 3 -132 3 -133 255 0 255 0 3 127 3
128 128 0 128 0 6 381 c4 210 4 386 1 390 -5 9 -1023 13 -1046 4 -10 -4 -12
-32 -10 -125 l3 -120 -116 0 -116 0 2 121 c1 66 -1 123 -5 126 -3 4 -6 61 -6
128 l0 123 255 7 255 7 0 124 0 124 775 0 774 0 3 -127z m-1034 -775 l3 -128
-256 0 -255 0 0 130 0 130 253 -2 252 -3 3 -127z m1300 17 c4 -167 15 -155
-138 -155 l-130 0 0 -120 0 -120 -125 0 -125 0 0 255 0 255 258 -2 257 -3 3
-110z"/>
<path d="M338 1793 c29 -2 74 -2 100 0 26 2 2 3 -53 3 -55 0 -76 -1 -47 -3z"/>
</g>
</svg>
